<svg height='100px' width='100px'  fill="#027659" xmlns="http://www.w3.org/2000/svg" xmlns:xlink="http://www.w3.org/1999/xlink" version="1.1" x="0px" y="0px" viewBox="0 0 100 100" enable-background="new 0 0 100 100" xml:space="preserve"><path d="M79.886,23.418c0.761-0.303,6.167,3.655,6.167,3.655c4.338,3.347,8.068,3.576,8.068,3.576c1.978-1.523,0-3.046,0-3.046  c-7.537-7.307-8.068-12.559-8.068-12.559c0.836-6.541-6.621-7.151-6.621-7.151c-12.734-2.602-17.385,5.433-18.934,9.732  c-0.972,2.234-0.795,3.105-0.795,3.105l-0.016,0.143h0.007c-0.768,8.871,3.602,17.918,3.602,17.918  c-6.694-1.22-16.665,2.817-16.665,2.817l2.053-0.152c-0.304,0.757-11.112,5.25-11.112,5.25c-1.367,1.369-7.841,3.35-7.841,3.35  l1.145,0.153l-4.795,2.432c2.283-0.758,1.142,0.839,1.142,0.839c-3.196,0.684-11.72,2.434-11.72,2.434h2.587  c-4.338,1.37-8.143,0.687-8.143,0.687l-2.739-1.373l0.457,2.212l-1.447-1.526l0.684,2.208L5,57.668l1.367,0.987L5,59.34l1.447,0.151  c2.36-0.993,12.1,7.838,12.1,7.838c8.599,8.447,8.676,8.902,8.676,8.902c3.575,3.199,4.641,0.842,14.916,4.419  c4.384,1.527,7.241,1.595,9.079,1.175c0.164,0.299,0.334,0.622,0.507,0.968c-0.129,1.851,1.408,4.333,2.001,5.229  c-0.093,0.166-0.148,0.349-0.148,0.538c0,0.733,0.761,1.334,1.704,1.334c0.041,0,0.079,0,0.125-0.008  c0.813,0.585,3.841,2.509,8.456,2.57c1.463,0.193,2.994,0.227,4.509,0c0,0-1.776-2.019,4.636-2.219c0,0,1.331-0.541-0.247-0.692  c0,0-6.315-0.543-3.303-2.072c0,0-0.397-0.884-10.898-0.392c0,0-0.936,0.047-0.936-0.889c0,0,0.147-1.578-1.829-3.448  c0,0-0.902-1.415-1.247-3.007c0.477-0.158,0.95-0.316,1.411-0.467c0.391,1.155,1.088,2.273,1.426,2.787  c-0.077,0.141-0.123,0.294-0.123,0.46c0,0.621,0.647,1.13,1.447,1.13c0.034,0,0.068-0.004,0.105-0.007  c0.695,0.498,3.266,2.131,7.186,2.184c1.24,0.161,2.54,0.191,3.827-0.002c0,0-1.506-1.716,3.941-1.886c0,0,1.131-0.459-0.211-0.587  c0,0-5.363-0.457-2.805-1.755c0,0-0.336-0.753-9.259-0.338c0,0-0.795,0.042-0.795-0.753c0,0,0.095-1.099-1.125-2.486  c13.754-4.89,19.171-8.478,19.171-8.478c12.709-7.535,10.349-19.103,10.349-19.103C87.5,38.412,78.212,31.864,78.212,31.864  c-3.348-2.891-4.261-5.478-4.261-5.478C72.731,20.296,79.886,23.418,79.886,23.418z"></path></svg>